<?xml version="1.0" standalone="no"?>
<!DOCTYPE svg PUBLIC "-//W3C//DTD SVG 20010904//EN"
 "http://www.w3.org/TR/2001/REC-SVG-20010904/DTD/svg10.dtd">
<svg version="1.0" xmlns="http://www.w3.org/2000/svg"
 width="1000.000000pt" height="1000.000000pt" viewBox="0 0 1000.000000 1000.000000"
 preserveAspectRatio="xMidYMid meet">
<metadata>
Created by potrace 1.14, written by Peter Selinger 2001-2017
</metadata>
<g transform="translate(0.000000,1000.000000) scale(0.100000,-0.100000)"
fill="#000000" stroke="none">
<path d="M1657 6202 c-15 -17 -17 -67 -17 -514 0 -468 1 -496 18 -512 17 -15
63 -16 497 -14 342 2 479 6 482 14 2 6 -36 51 -84 99 -83 81 -90 86 -122 81
-65 -10 -131 37 -131 96 0 42 19 74 56 94 78 42 174 -39 143 -122 -6 -18 6
-35 82 -110 49 -49 95 -89 102 -89 9 0 13 107 15 479 2 435 1 481 -14 498 -16
16 -36 18 -218 18 l-201 0 -118 -118 -118 -118 7 -41 c15 -98 -90 -161 -164
-98 -36 30 -47 75 -28 120 21 49 71 71 127 55 24 -7 36 1 114 80 61 61 86 93
82 104 -6 14 -37 16 -250 16 -224 0 -245 -2 -260 -18z m810 -198 c34 -22 47
-85 26 -126 -22 -44 -57 -62 -107 -55 l-43 6 -154 -155 -154 -155 0 -54 c0
-62 -26 -99 -76 -109 -101 -20 -167 105 -93 175 21 19 37 24 82 25 l57 0 152
153 152 153 -5 42 c-7 51 6 80 48 106 33 20 78 18 115 -6z"/>
<path d="M2376 5954 c-34 -33 -8 -82 38 -70 31 8 40 33 21 62 -18 28 -37 30
-59 8z"/>
<path d="M1898 5475 c-10 -22 -9 -29 9 -46 26 -26 60 -18 69 17 13 52 -56 77
-78 29z"/>
<path d="M1905 5950 c-37 -41 24 -97 63 -58 17 17 15 44 -4 62 -21 21 -37 20
-59 -4z"/>
<path d="M2372 5488 c-21 -21 -14 -57 14 -70 23 -11 29 -10 45 11 23 28 23 35
3 55 -18 19 -45 21 -62 4z"/>
<path d="M2833 4587 l-43 -21 0 -63 0 -63 -46 0 -45 0 3 -42 c3 -43 3 -43 46
-46 l42 -3 0 -130 0 -131 29 -29 c25 -24 38 -29 80 -29 78 0 98 12 103 59 l3
40 -47 -6 c-72 -9 -78 0 -78 123 l0 104 70 0 70 0 0 45 0 45 -70 0 -69 0 -3
84 -3 83 -42 -20z"/>
<path d="M3363 4587 l-43 -21 0 -63 0 -63 -46 0 -45 0 3 -42 c3 -43 3 -43 46
-46 l42 -3 0 -130 0 -131 29 -29 c25 -24 38 -29 80 -29 78 0 98 12 103 59 l3
40 -47 -6 c-72 -9 -78 0 -78 123 l0 104 70 0 70 0 0 45 0 45 -70 0 -69 0 -3
84 -3 83 -42 -20z"/>
<path d="M4413 4587 l-43 -21 0 -63 0 -63 -46 0 -45 0 3 -42 c3 -43 3 -43 46
-46 l42 -3 0 -130 0 -131 29 -29 c25 -24 38 -29 80 -29 78 0 98 12 103 59 l3
40 -47 -6 c-72 -9 -78 0 -78 123 l0 104 70 0 70 0 0 45 0 45 -70 0 -69 0 -3
84 -3 83 -42 -20z"/>
<path d="M6430 4586 l-45 -21 -3 -263 -2 -262 50 0 50 0 0 134 c0 120 2 136
21 160 27 34 88 37 119 4 18 -20 20 -35 20 -160 l0 -138 51 0 51 0 -4 158 c-3
175 -10 195 -71 232 -39 24 -110 26 -151 5 -15 -8 -30 -15 -32 -15 -2 0 -5 42
-6 94 l-3 93 -45 -21z"/>
<path d="M1712 4428 c-19 -19 -22 -20 -22 -5 0 13 -9 17 -40 17 l-40 0 0 -200
0 -200 45 0 45 0 0 141 c0 146 7 179 40 179 33 0 40 -33 40 -179 l0 -141 44 0
43 0 1 146 c1 150 7 174 42 174 27 0 30 -19 30 -176 l0 -144 45 0 45 0 0 155
c0 210 -18 255 -103 255 -22 0 -43 -8 -60 -24 l-26 -24 -22 24 c-29 31 -77 32
-107 2z"/>
<path d="M2255 4434 c-55 -20 -59 -27 -45 -69 9 -28 16 -35 29 -29 53 22 89
33 114 34 33 0 77 -39 77 -69 0 -18 -3 -19 -26 -11 -72 28 -191 -5 -219 -61
-35 -66 -5 -157 60 -185 45 -18 112 -18 150 2 19 10 31 11 33 5 2 -6 24 -11
48 -11 l44 0 0 153 c0 173 -10 207 -70 239 -42 22 -137 23 -195 2z m168 -234
c5 -4 7 -18 5 -31 -4 -33 -67 -63 -113 -55 -61 12 -72 74 -17 95 28 11 111 5
125 -9z"/>
<path d="M5425 4434 c-73 -38 -105 -96 -105 -194 0 -135 69 -210 190 -210 121
0 190 75 190 210 0 99 -42 172 -113 199 -41 16 -127 13 -162 -5z m150 -98 c28
-28 40 -81 30 -132 -9 -53 -45 -84 -95 -84 -49 0 -84 32 -94 85 -10 49 2 100
30 130 32 34 95 35 129 1z"/>
<path d="M5955 4435 c-44 -23 -65 -53 -65 -94 0 -55 24 -80 127 -128 81 -38
94 -47 91 -66 -2 -16 -13 -24 -40 -31 -31 -8 -45 -5 -87 16 l-49 26 -29 -30
-28 -29 25 -20 c41 -33 86 -49 140 -49 123 0 191 81 145 170 -11 21 -37 40
-89 65 -40 19 -78 35 -83 35 -5 0 -17 8 -26 18 -38 42 42 67 108 33 l39 -21
28 27 c27 26 27 27 10 46 -40 46 -156 63 -217 32z"/>
<path d="M7005 4434 c-73 -38 -105 -96 -105 -194 0 -135 69 -210 190 -210 121
0 190 75 190 210 0 99 -42 172 -113 199 -41 16 -127 13 -162 -5z m150 -98 c28
-28 40 -81 30 -132 -9 -53 -45 -84 -95 -84 -49 0 -84 32 -94 85 -10 49 2 100
30 130 32 34 95 35 129 1z"/>
<path d="M7545 4436 c-68 -31 -105 -102 -105 -198 1 -97 43 -171 113 -197 65
-25 161 -7 200 37 19 20 18 21 -6 47 -24 26 -25 26 -55 11 -50 -26 -99 -21
-133 13 -16 16 -29 34 -29 40 0 7 45 11 134 11 l135 0 3 28 c5 45 -10 125 -30
151 -36 48 -69 65 -135 68 -38 2 -74 -2 -92 -11z m118 -77 c23 -10 47 -46 47
-69 0 -6 -40 -10 -90 -10 -49 0 -90 3 -90 8 1 18 29 56 51 68 30 16 51 17 82
3z"/>
<path d="M8055 4435 c-44 -23 -65 -53 -65 -94 0 -55 24 -80 127 -128 81 -38
94 -47 91 -66 -2 -16 -13 -24 -40 -31 -31 -8 -45 -5 -87 16 l-49 26 -29 -30
-28 -29 25 -20 c41 -33 86 -49 140 -49 123 0 191 81 145 170 -11 21 -37 40
-89 65 -40 19 -78 35 -83 35 -5 0 -17 8 -26 18 -38 42 42 67 108 33 l39 -21
28 27 c27 26 27 27 10 46 -40 46 -156 63 -217 32z"/>
<path d="M3807 4240 l74 -201 -29 -77 -29 -77 44 -3 c25 -2 47 -1 50 2 3 2 51
127 107 278 l103 273 -44 3 c-25 2 -48 1 -50 -2 -3 -3 -27 -65 -53 -137 -26
-72 -50 -127 -54 -121 -3 5 -23 59 -45 118 -22 60 -42 117 -46 127 -5 13 -19
17 -55 17 l-48 0 75 -200z"/>
<path d="M4754 4423 c3 -10 23 -90 45 -178 23 -88 44 -170 47 -182 5 -19 13
-23 44 -23 l37 0 23 105 c13 58 26 105 30 105 4 0 17 -47 30 -105 l23 -105 39
0 c21 0 38 2 38 4 0 4 87 347 96 379 5 14 -2 17 -39 17 l-44 0 -23 -105 c-13
-58 -27 -105 -31 -105 -3 0 -9 15 -13 33 -3 17 -13 65 -22 105 l-16 72 -38 0
-37 0 -23 -104 c-13 -58 -26 -103 -30 -101 -3 2 -17 49 -30 104 l-24 101 -43
0 c-38 0 -44 -3 -39 -17z"/>
</g>
</svg>
